<svg width="992" height="230" viewBox="0 0 992 230" fill="none" xmlns="http://www.w3.org/2000/svg">
<g filter="url(#filter0_d)">
<path d="M401.04 34.5947C393.751 27.3052 384.834 23.625 374.572 23.625C364.31 23.625 355.392 27.3052 348.103 34.5947C340.813 41.8842 337.133 50.8368 337.133 61.2403V151.935C337.133 162.338 340.813 171.326 348.103 178.651C355.392 186.011 364.274 189.727 374.572 189.727C384.834 189.727 393.715 186.011 401.04 178.651C406.277 173.378 409.675 167.221 411.125 160.356L411.373 159.259L388.089 152.465L387.771 153.668C386.886 156.959 385.577 159.259 383.347 161.347C380.835 163.718 377.933 164.886 374.536 164.886C370.998 164.886 368.061 163.718 365.619 161.383C363.213 159.047 362.01 156.252 362.01 152.819V60.568C362.01 57.2771 363.177 54.4816 365.619 52.0753C368.061 49.6691 370.998 48.4659 374.536 48.4659C377.933 48.4659 380.835 49.6337 383.347 52.0753C385.683 54.34 386.886 57.9847 387.063 60.6387C387.134 61.5941 388.018 71.4668 388.018 71.4668L388.124 72.8115L412.435 68.4236L412.01 61.1341C411.019 48.7844 408.047 41.6011 401.04 34.5947Z" fill="white"/>
<path d="M146.616 122.815H163.176C169.121 122.815 176.128 122.001 182.816 116.127C188.619 111.031 191.414 103.281 191.414 92.4888V51.9365C191.414 43.3023 187.416 35.3051 180.728 30.528C173.969 25.7155 163.919 25.0078 158.505 25.0078H120.218V188.951H146.616V122.815ZM167.6 58.1644V90.0471C167.6 93.975 166.856 96.9474 165.512 98.469C163.919 100.238 160.982 100.486 158.576 100.486H146.616V47.761H157.55C160.204 47.761 163.636 48.3271 165.229 49.9549C166.856 51.5472 167.6 54.1658 167.6 58.1644Z" fill="white"/>
<path d="M483.099 47.7569V25.0391H422.66V188.876H483.099V166.123H448.563V118.175H478.287V95.811H448.563V47.7569H483.099Z" fill="white"/>
<path d="M56.7348 188.878H77.8956C84.7251 188.878 90.6699 186.437 95.4824 181.66C100.33 176.883 102.772 171.008 102.772 164.25C102.772 157.491 100.33 151.617 95.4824 146.84C90.6699 142.063 84.7251 139.621 77.8956 139.621H56.7348C49.9053 139.621 43.9958 142.063 39.2187 146.84C34.4416 151.617 32 157.491 32 164.25C32 171.008 34.4416 176.883 39.2187 181.66C43.9958 186.437 49.9053 188.878 56.7348 188.878ZM51.0023 159.26C52.4531 157.845 54.1162 157.137 56.0979 157.137H78.9572C81.0096 157.137 82.7081 157.845 84.0882 159.26C85.5036 160.676 86.1759 162.339 86.1759 164.25C86.1759 166.267 85.5036 167.93 84.0882 169.31C82.6727 170.69 81.0096 171.362 78.9218 171.362H56.0625C54.0809 171.362 52.4177 170.69 50.9669 169.275C49.5161 167.895 48.8437 166.267 48.8437 164.25C48.8791 162.303 49.5868 160.676 51.0023 159.26Z" fill="white"/>
<path d="M100.966 25.0742H85.4666V50.5167H75.1693V25.0742H59.5995V50.5167H49.6206V25.0742H34.1216V68.0681H100.966V25.0742Z" fill="white"/>
<path d="M100.895 110.956H68.9414L100.258 96.8722L100.966 96.5538V79.25H34.1216V96.9784H65.1551L34.1216 111.38V128.401H100.895V110.956Z" fill="white"/>
<path d="M319.547 25.0078L293.892 25.0431V188.951H319.547V25.0078Z" fill="white"/>
<path d="M264.237 116.127C270.04 111.031 272.836 103.281 272.836 92.4888V51.9365C272.836 43.3023 268.837 35.3051 262.149 30.528C255.39 25.7155 245.341 25.0078 239.927 25.0078H201.568V188.951H228.072V122.815H236.636L252.1 188.951H277.861L261.335 118.356C262.432 117.648 263.352 116.905 264.237 116.127ZM228.072 47.761H239.007C241.661 47.761 245.093 48.3271 246.685 49.9549C248.313 51.5826 249.056 54.2011 249.056 58.1998V90.0826C249.056 94.0104 248.313 96.9828 246.969 98.5044C245.376 100.274 242.404 100.521 240.033 100.521H228.072V47.761Z" fill="white"/>
<path d="M900.006 188.63H960.41V165.877H925.909V117.929H955.633V95.5649H925.909V47.5107H960.41V24.793H900.006V188.63Z" fill="white"/>
<path d="M828.95 188.63H889.389V165.877H854.888V117.929H884.577V95.5649H854.888V47.5107H889.389V24.793H828.95V188.63Z" fill="white"/>
<path d="M758.533 188.63H784.471V117.929H814.195V95.5649H784.471V47.5107H818.972V24.793H758.533V188.63Z" fill="white"/>
<path d="M688.295 188.63H714.268V117.929H743.957V95.5649H714.268V47.5107H748.77V24.793H688.295V188.63Z" fill="white"/>
<path d="M636.593 23.6953C626.331 23.6953 617.413 27.3754 610.124 34.6649C602.834 41.9544 599.154 50.9071 599.154 61.3106V152.783C599.154 163.187 602.834 172.175 610.124 179.535C617.413 186.895 626.295 190.611 636.593 190.611C646.855 190.611 655.772 186.895 663.061 179.535C670.351 172.21 674.031 163.187 674.031 152.783V61.3459C674.031 50.9424 670.351 41.9898 663.061 34.7003C655.772 27.4108 646.89 23.6953 636.593 23.6953ZM623.535 60.709C623.535 57.4181 624.774 54.658 627.286 52.2517C629.834 49.8101 632.877 48.6424 636.593 48.6424C640.167 48.6424 643.174 49.8101 645.793 52.2871C648.376 54.6934 649.65 57.4535 649.65 60.7444V153.668C649.65 157.065 648.376 159.86 645.793 162.196C643.174 164.567 640.167 165.735 636.593 165.735C632.877 165.735 629.834 164.567 627.286 162.196C624.774 159.86 623.535 157.065 623.535 153.668V60.709Z" fill="white"/>
<path d="M544.662 52.1108C547.139 49.7045 550.041 48.5013 553.579 48.5013C556.976 48.5013 559.878 49.6691 562.39 52.1108C564.726 54.3755 565.929 58.0202 566.106 60.6388C566.177 61.5942 567.061 71.4669 567.061 71.4669L567.167 72.8116L591.478 68.4236L591.053 61.1341C590.062 48.7844 587.09 41.6011 580.083 34.5947C572.794 27.3052 563.877 23.625 553.615 23.625C543.353 23.625 534.435 27.3052 527.146 34.5947C519.856 41.8842 516.176 50.8368 516.176 61.2403V151.935C516.176 162.338 519.856 171.326 527.146 178.651C534.435 186.011 543.353 189.727 553.615 189.727C563.877 189.727 572.758 186.011 580.083 178.651C585.32 173.378 588.718 167.221 590.168 160.356L590.416 159.259L567.132 152.465L566.814 153.668C565.929 156.959 564.584 159.259 562.39 161.347C559.878 163.718 557.012 164.886 553.579 164.886C550.041 164.886 547.104 163.718 544.662 161.383C542.256 159.047 541.053 156.252 541.053 152.819V60.568C541.053 57.3478 542.256 54.4816 544.662 52.1108Z" fill="white"/>
</g>
<defs>
<filter id="filter0_d" x="0.505173" y="0.00387955" width="991.4" height="229.976" filterUnits="userSpaceOnUse" color-interpolation-filters="sRGB">
<feFlood flood-opacity="0" result="BackgroundImageFix"/>
<feColorMatrix in="SourceAlpha" type="matrix" values="0 0 0 0 0 0 0 0 0 0 0 0 0 0 0 0 0 0 127 0"/>
<feOffset dy="7.87371"/>
<feGaussianBlur stdDeviation="15.7474"/>
<feColorMatrix type="matrix" values="0 0 0 0 0 0 0 0 0 0 0 0 0 0 0 0 0 0 0.5 0"/>
<feBlend mode="normal" in2="BackgroundImageFix" result="effect1_dropShadow"/>
<feBlend mode="normal" in="SourceGraphic" in2="effect1_dropShadow" result="shape"/>
</filter>
</defs>
</svg>
